<svg width="37" height="66" viewBox="0 0 37 66" fill="none" xmlns="http://www.w3.org/2000/svg">
<path d="M7.74 66C5.90079 65.9869 4.14065 65.2505 2.8401 63.9499C1.53955 62.6494 0.80311 60.8892 0.790019 59.05V18.39C0.78557 18.3234 0.78557 18.2566 0.790019 18.19C1.00002 16.33 2.95 13.82 6.46 10.86L8.12001 9.44H5.36C5.10804 9.44 4.86643 9.33992 4.68827 9.16176C4.51011 8.9836 4.41001 8.74196 4.41001 8.49001C4.41001 8.23805 4.51011 7.99641 4.68827 7.81825C4.86643 7.64009 5.10804 7.53999 5.36 7.53999H21L28 0.979996C28.1751 0.812871 28.4079 0.719744 28.65 0.720002C28.7803 0.720448 28.9091 0.748278 29.028 0.801682C29.1468 0.855086 29.2531 0.932869 29.34 1.03C29.4257 1.12075 29.4925 1.22766 29.5364 1.3445C29.5804 1.46133 29.6006 1.58574 29.596 1.71048C29.5913 1.83522 29.5618 1.95778 29.5093 2.07101C29.4568 2.18425 29.3823 2.28589 29.29 2.37L23.74 7.53999H32.1C32.2502 7.49063 32.41 7.47759 32.5662 7.50192C32.7224 7.52626 32.8706 7.58727 32.9987 7.67998C33.1267 7.77269 33.231 7.89444 33.3029 8.03525C33.3748 8.17605 33.4123 8.33191 33.4123 8.49001C33.4123 8.6481 33.3748 8.80394 33.3029 8.94475C33.231 9.08555 33.1267 9.20731 32.9987 9.30002C32.8706 9.39273 32.7224 9.45376 32.5662 9.47809C32.41 9.50242 32.2502 9.48937 32.1 9.44H29.34L31.01 10.86C34.51 13.86 36.46 16.33 36.66 18.11C36.6682 18.2032 36.6682 18.2968 36.66 18.39V59.05C36.6468 60.8978 35.9035 62.6655 34.5922 63.9675C33.2808 65.2694 31.5079 66 29.66 66H7.74ZM2.69001 59.05C2.68998 59.7108 2.82093 60.3651 3.07533 60.975C3.32972 61.5849 3.7025 62.1384 4.1721 62.6033C4.6417 63.0683 5.19882 63.4355 5.81123 63.6838C6.42364 63.9322 7.0792 64.0566 7.74 64.05H29.84C31.1699 64.0475 32.4454 63.5214 33.3905 62.5857C34.3356 61.65 34.8743 60.3798 34.89 59.05V43.52L34.49 43.26H34.43C32.2282 41.7952 29.6446 41.0093 27 41C23.883 41.0402 20.8733 42.1446 18.47 44.13C16.5967 45.4676 14.4959 46.4536 12.27 47.04V45.04C14.0599 44.5081 15.7494 43.6837 17.27 42.6C19.5284 40.7261 22.2781 39.5411 25.1912 39.1865C28.1044 38.8319 31.058 39.3226 33.7 40.6L34.85 41.16V35L34.45 34.74H34.39C32.1899 33.2806 29.6101 32.4983 26.97 32.49C23.853 32.5302 20.8433 33.6346 18.44 35.62C16.5667 36.9576 14.4659 37.9436 12.24 38.53V36.53C14.0299 35.9981 15.7194 35.1736 17.24 34.09C19.4984 32.2161 22.2481 31.0311 25.1612 30.6765C28.0744 30.3219 31.028 30.8126 33.67 32.09L34.82 32.65V18.35C34.82 16.4 29.6 11.92 26.31 9.56L26.1 9.41H11.4L11.19 9.56C7.91001 11.92 2.69001 16.4 2.69001 18.35V36.6L3.29002 36.75C4.56153 37.0754 5.86757 37.2467 7.18 37.26V39.16C5.99405 39.1438 4.81223 39.0166 3.65 38.78L2.65 38.58V45.1L3.25001 45.25C4.52246 45.5705 5.82795 45.7417 7.14003 45.76V47.66C5.95408 47.6438 4.77222 47.5166 3.61 47.28L2.61 47.08L2.69001 59.05Z" fill="white"/>
</svg>
